<svg id="svg" version="1.1" width="1000" height="1000" xmlns="http://www.w3.org/2000/svg" xmlns:xlink="http://www.w3.org/1999/xlink" ><g id="svgg"><path id="path0" d="M87.346 57.308 C 86.574 57.753,83.528 60.170,79.650 63.413 C 78.853 64.081,77.502 64.981,76.649 65.413 C 74.872 66.315,71.600 69.846,70.360 72.200 C 69.897 73.080,69.122 74.250,68.637 74.800 C 68.153 75.350,67.242 76.880,66.613 78.200 C 65.983 79.520,64.807 81.410,63.999 82.400 C 63.191 83.390,62.060 85.045,61.485 86.078 C 60.910 87.111,59.971 88.665,59.398 89.532 C 58.824 90.398,57.941 92.253,57.435 93.654 C 56.133 97.255,55.968 97.701,55.602 98.600 C 55.423 99.040,54.745 101.110,54.095 103.200 C 52.945 106.897,52.650 108.143,51.445 114.400 C 51.127 116.050,50.557 118.960,50.178 120.867 C 49.561 123.970,49.514 126.341,49.731 143.467 C 49.989 163.921,50.195 166.355,52.139 172.000 C 52.707 173.650,53.379 175.990,53.633 177.200 C 53.886 178.410,54.221 179.580,54.377 179.800 C 55.196 180.957,56.073 185.485,57.978 198.400 C 59.208 206.740,59.557 208.522,60.353 210.526 C 60.599 211.145,60.800 212.495,60.801 213.526 C 60.801 215.805,62.315 224.051,62.830 224.580 C 63.034 224.789,63.200 225.571,63.200 226.318 C 63.200 227.065,63.804 229.504,64.542 231.738 C 65.281 233.972,66.116 236.790,66.398 238.000 C 66.868 240.013,67.851 243.320,69.371 248.000 C 70.897 252.703,71.000 254.770,71.000 280.800 C 71.000 299.829,71.126 306.702,71.501 308.200 C 71.777 309.300,72.279 311.820,72.617 313.800 C 75.994 333.589,91.896 344.202,118.000 344.090 C 123.170 344.068,136.580 344.055,147.800 344.060 C 165.524 344.069,168.541 343.983,170.800 343.406 C 172.230 343.040,174.390 342.504,175.600 342.214 C 183.849 340.236,194.580 332.281,196.858 326.455 C 198.080 323.330,198.463 310.029,197.433 306.463 C 196.210 302.228,195.457 299.801,195.241 299.400 C 195.123 299.180,194.646 297.913,194.181 296.584 C 193.052 293.356,189.615 288.073,187.286 285.985 C 186.249 285.055,183.600 282.551,181.400 280.420 C 179.200 278.290,176.770 276.118,176.000 275.595 C 175.230 275.072,173.893 274.049,173.028 273.322 C 172.163 272.595,171.263 271.993,171.028 271.984 C 170.793 271.975,169.977 271.435,169.215 270.784 C 168.453 270.133,167.589 269.600,167.293 269.600 C 166.998 269.600,165.721 268.897,164.456 268.038 C 163.190 267.179,161.524 266.212,160.753 265.890 C 159.138 265.215,152.945 259.980,151.655 258.200 C 151.177 257.540,150.056 256.100,149.165 255.000 C 136.409 239.255,137.479 229.019,152.200 225.979 C 153.311 225.749,165.227 225.392,179.000 225.175 C 194.865 224.925,204.881 224.607,206.800 224.292 C 215.226 222.910,218.586 223.949,224.470 229.754 C 231.141 236.335,231.872 241.585,232.190 285.200 C 232.265 295.430,232.460 306.003,232.624 308.695 L 232.922 313.591 236.965 317.339 C 249.683 329.133,264.733 334.259,274.723 330.200 C 276.077 329.650,277.457 329.200,277.791 329.200 C 278.125 329.200,279.523 328.678,280.899 328.040 C 282.275 327.401,283.831 326.751,284.358 326.594 C 285.202 326.343,286.398 325.739,291.916 322.776 C 302.372 317.163,312.258 298.382,314.434 280.000 C 314.629 278.350,314.966 275.740,315.181 274.200 C 315.397 272.660,315.597 268.340,315.625 264.600 C 315.695 255.287,316.115 249.217,317.153 242.545 L 318.033 236.889 316.843 234.545 C 316.189 233.255,315.464 231.701,315.233 231.091 C 315.002 230.481,314.180 228.992,313.406 227.783 C 312.633 226.574,312.000 225.411,312.000 225.199 C 312.000 220.748,279.717 188.800,275.219 188.800 C 275.024 188.800,274.355 188.536,273.732 188.213 C 267.287 184.872,252.895 180.013,249.388 179.993 C 248.735 179.990,245.770 179.440,242.800 178.771 C 239.830 178.102,234.970 177.314,232.000 177.020 C 220.297 175.859,209.806 170.295,208.023 164.303 C 207.745 163.366,207.334 162.150,207.110 161.600 C 206.338 159.704,206.229 150.046,206.951 147.627 C 207.308 146.432,207.600 145.023,207.600 144.496 C 207.600 139.840,221.199 124.800,225.409 124.800 C 225.636 124.800,226.261 124.493,226.797 124.117 C 228.016 123.263,232.239 121.773,235.156 121.168 C 236.373 120.915,237.735 120.474,238.184 120.187 C 238.633 119.901,240.080 119.478,241.400 119.249 C 245.189 118.590,248.960 117.728,252.200 116.780 C 252.860 116.586,255.020 116.156,257.000 115.823 C 265.857 114.332,271.777 111.789,273.818 108.599 C 274.533 107.480,275.390 106.341,275.721 106.066 C 276.052 105.791,276.783 104.624,277.347 103.473 C 277.910 102.322,279.547 100.156,280.985 98.661 L 283.600 95.941 283.600 90.420 C 283.600 84.024,282.808 79.561,281.395 78.000 C 280.897 77.450,280.366 76.589,280.214 76.086 C 279.825 74.802,274.212 68.986,271.806 67.375 C 270.703 66.636,268.810 65.213,267.600 64.213 C 265.375 62.374,262.248 60.694,258.609 59.382 C 256.858 58.751,255.069 58.660,243.809 58.632 L 231.000 58.600 228.025 59.740 C 226.389 60.367,224.141 61.492,223.030 62.240 C 221.919 62.988,220.689 63.600,220.296 63.600 C 219.902 63.600,218.440 64.320,217.047 65.200 C 215.654 66.080,214.227 66.800,213.877 66.800 C 212.172 66.800,208.292 70.390,206.789 73.358 C 205.646 75.616,198.115 81.600,196.417 81.600 C 196.021 81.600,195.082 81.857,194.328 82.172 C 185.068 86.041,169.667 87.653,164.741 85.268 C 163.773 84.800,162.396 84.299,161.682 84.156 C 160.968 84.014,160.286 83.740,160.168 83.548 C 160.050 83.357,159.591 83.200,159.148 83.200 C 158.706 83.200,157.559 82.660,156.600 82.000 C 155.641 81.340,154.646 80.800,154.390 80.800 C 153.841 80.800,152.299 79.740,149.020 77.109 C 147.711 76.059,146.361 75.196,146.020 75.191 C 145.679 75.186,144.950 74.830,144.400 74.400 C 143.850 73.970,143.179 73.614,142.910 73.609 C 142.640 73.604,141.830 73.241,141.110 72.801 C 140.389 72.362,139.483 72.002,139.095 72.001 C 138.259 72.000,134.322 69.375,132.312 67.479 C 131.022 66.263,129.882 65.630,123.421 62.545 C 122.333 62.025,120.803 61.596,120.021 61.590 C 119.240 61.585,117.880 61.390,117.000 61.156 C 114.764 60.561,108.440 59.280,104.417 58.606 C 102.556 58.295,100.216 57.862,99.217 57.645 C 96.118 56.973,88.314 56.751,87.346 57.308 M101.600 61.762 C 103.910 62.157,106.160 62.634,106.600 62.823 C 107.040 63.011,108.840 63.371,110.600 63.624 C 112.360 63.876,114.107 64.246,114.482 64.445 C 114.856 64.645,116.296 64.915,117.682 65.045 C 120.016 65.264,121.281 65.743,127.948 68.933 C 128.469 69.182,129.279 69.804,129.748 70.315 C 130.897 71.569,136.910 75.600,137.627 75.599 C 138.762 75.596,146.247 79.619,148.388 81.383 C 149.592 82.374,151.572 83.699,152.788 84.326 C 154.005 84.953,155.630 85.797,156.400 86.201 C 158.746 87.432,159.163 87.600,159.868 87.600 C 160.242 87.600,161.279 87.942,162.174 88.360 C 165.252 89.799,166.742 90.037,173.062 90.097 C 178.406 90.147,179.965 90.017,183.000 89.267 C 189.559 87.645,195.795 85.880,196.180 85.538 C 196.389 85.352,197.143 85.200,197.856 85.200 C 198.569 85.200,199.265 85.019,199.401 84.798 C 199.538 84.577,200.763 83.644,202.125 82.724 C 206.244 79.941,208.330 77.943,210.302 74.892 C 211.992 72.276,214.252 70.400,215.713 70.400 C 215.856 70.400,217.087 69.680,218.449 68.800 C 219.810 67.920,221.259 67.200,221.668 67.200 C 222.077 67.200,223.394 66.548,224.594 65.751 C 225.794 64.955,227.996 63.830,229.488 63.251 L 232.200 62.200 243.884 62.243 L 255.568 62.286 258.884 63.601 C 262.512 65.040,263.161 65.456,269.258 70.270 C 273.150 73.342,276.800 77.056,276.800 77.944 C 276.800 78.161,277.238 78.860,277.774 79.497 C 279.124 81.100,280.000 85.262,280.000 90.069 L 280.000 94.088 277.934 96.344 C 275.875 98.592,273.200 102.428,273.200 103.132 C 273.200 103.335,272.906 103.746,272.546 104.045 C 272.186 104.344,271.482 105.236,270.982 106.028 C 269.342 108.626,263.415 110.965,254.800 112.414 C 253.370 112.655,251.660 113.004,251.000 113.191 C 247.907 114.067,245.483 114.637,240.200 115.735 C 238.660 116.055,236.590 116.601,235.600 116.948 C 234.610 117.295,231.971 118.132,229.735 118.807 C 227.499 119.482,225.452 120.297,225.186 120.617 C 224.920 120.938,224.457 121.200,224.156 121.200 C 219.381 121.200,204.020 138.009,203.996 143.262 C 203.993 143.778,203.723 145.084,203.396 146.164 C 202.326 149.690,202.654 159.504,203.998 164.200 C 204.250 165.080,204.557 166.250,204.682 166.800 C 204.898 167.756,211.265 174.400,211.965 174.400 C 212.150 174.400,212.523 174.666,212.793 174.992 C 214.443 176.979,223.991 179.938,231.000 180.634 C 234.080 180.939,237.950 181.534,239.600 181.954 C 241.250 182.375,244.040 182.928,245.800 183.182 C 247.560 183.437,252.330 184.563,256.400 185.684 C 262.933 187.484,265.072 188.246,268.200 189.887 C 268.640 190.118,269.450 190.491,270.000 190.717 C 273.148 192.010,275.414 193.230,278.897 195.508 C 286.140 200.244,308.400 223.652,308.400 226.532 C 308.400 226.742,309.120 228.054,310.000 229.447 C 310.880 230.840,311.600 232.117,311.600 232.284 C 311.600 232.450,312.167 233.728,312.861 235.123 L 314.122 237.659 313.401 242.329 C 312.512 248.092,312.091 254.526,312.025 263.400 C 311.997 267.140,311.797 271.460,311.581 273.000 C 311.366 274.540,311.025 277.150,310.825 278.800 C 310.104 284.750,306.240 298.602,304.560 301.264 C 304.032 302.100,303.596 303.013,303.591 303.292 C 303.586 303.571,303.230 304.250,302.800 304.800 C 302.370 305.350,302.014 306.033,302.009 306.318 C 301.981 307.915,295.807 315.359,292.400 317.903 C 290.442 319.364,284.154 322.795,283.426 322.798 C 283.055 322.800,280.310 323.991,278.400 324.979 C 277.850 325.264,276.703 325.622,275.851 325.776 C 274.999 325.929,273.964 326.222,273.551 326.427 C 273.138 326.632,272.442 326.980,272.005 327.200 C 269.911 328.254,260.074 327.251,256.600 325.629 C 256.160 325.424,255.080 325.043,254.200 324.783 C 252.351 324.237,247.316 321.233,246.221 320.023 C 245.811 319.571,245.268 319.200,245.014 319.200 C 244.759 319.200,242.744 317.564,240.535 315.565 L 236.518 311.931 236.260 307.406 C 236.117 304.918,235.917 294.268,235.814 283.741 C 235.371 238.582,234.737 234.484,227.042 227.057 C 219.917 220.180,216.491 219.087,206.603 220.539 C 203.220 221.036,196.503 221.276,177.600 221.576 C 152.797 221.970,151.262 222.072,146.229 223.668 C 136.254 226.829,133.659 239.084,140.752 249.530 C 141.659 250.864,142.400 252.114,142.400 252.306 C 142.400 252.499,142.995 253.363,143.722 254.228 C 144.449 255.093,145.471 256.430,145.992 257.200 C 147.607 259.583,151.740 263.959,154.127 265.814 C 158.400 269.133,159.039 269.581,159.513 269.590 C 159.794 269.596,161.233 270.410,162.708 271.400 C 164.184 272.390,165.612 273.200,165.882 273.200 C 166.152 273.200,166.964 273.695,167.687 274.300 C 168.411 274.905,169.294 275.580,169.650 275.800 C 172.266 277.416,175.476 279.973,178.200 282.609 C 179.960 284.312,182.435 286.609,183.700 287.713 C 185.784 289.532,190.000 295.334,190.000 296.383 C 190.000 296.618,190.163 297.123,190.363 297.505 C 190.824 298.388,192.943 304.434,193.620 306.800 C 195.196 312.306,194.314 324.142,192.088 327.359 C 190.291 329.956,182.482 335.782,179.400 336.825 C 178.520 337.123,177.575 337.532,177.299 337.733 C 177.023 337.935,175.763 338.334,174.499 338.620 C 173.235 338.907,171.030 339.440,169.600 339.804 C 167.340 340.380,164.329 340.465,146.600 340.446 C 135.380 340.435,122.592 340.452,118.183 340.484 C 94.389 340.657,79.357 330.910,76.415 313.400 C 76.156 311.860,75.642 309.340,75.272 307.800 C 74.679 305.329,74.600 302.014,74.600 279.600 C 74.600 253.649,74.485 251.302,72.995 246.800 C 71.646 242.725,70.494 238.872,70.004 236.800 C 69.719 235.590,68.881 232.772,68.142 230.538 C 67.404 228.304,66.800 225.907,66.800 225.212 C 66.800 224.516,66.610 223.593,66.378 223.160 C 65.766 222.015,64.400 214.523,64.400 212.309 C 64.400 211.268,64.144 209.738,63.832 208.908 C 63.071 206.890,62.550 204.314,61.786 198.800 C 60.444 189.112,59.117 181.725,58.195 178.820 C 53.489 163.978,53.596 164.757,53.317 143.270 C 53.080 124.960,53.143 123.853,54.787 117.200 C 54.977 116.430,55.247 114.990,55.387 114.000 C 55.810 111.008,56.463 108.401,57.841 104.200 C 60.619 95.733,61.936 92.501,63.736 89.730 C 64.761 88.151,65.600 86.744,65.600 86.602 C 65.600 86.460,66.296 85.501,67.147 84.472 C 67.997 83.442,69.274 81.430,69.983 80.000 C 70.693 78.570,71.587 77.040,71.972 76.600 C 72.356 76.160,73.092 75.080,73.607 74.200 C 75.271 71.358,76.769 69.697,78.464 68.813 C 80.096 67.963,80.817 67.407,86.000 63.003 L 88.600 60.794 93.000 60.919 C 95.420 60.988,99.290 61.367,101.600 61.762 " stroke="none" fill="#000000" fill-rule="evenodd"></path></g></svg>